<svg width="378" height="84" viewBox="0 0 378 84" fill="none" xmlns="http://www.w3.org/2000/svg">
<rect width="378" height="84" rx="14" fill="#111827"/>
<path d="M41.875 48.29C41.875 43.8567 43.1117 40.31 45.585 37.65C48.0583 34.9667 51.4417 33.625 55.735 33.625C57.1117 33.625 58.0917 33.905 58.675 34.465C59.2817 35.0017 59.585 35.8417 59.585 36.985C59.585 37.1483 59.5617 37.4633 59.515 37.93C60.3783 37.23 61.335 36.88 62.385 36.88C63.8083 36.88 65.0217 37.5217 66.025 38.805C67.0517 40.065 67.565 41.8967 67.565 44.3C67.565 46.7033 67.18 48.9083 66.41 50.915C65.64 52.9217 64.6133 54.5667 63.33 55.85C62.07 57.1333 60.6233 58.125 58.99 58.825C57.38 59.525 55.7117 59.875 53.985 59.875C50.2517 59.875 47.3 58.8133 45.13 56.69C42.96 54.5433 41.875 51.7433 41.875 48.29ZM59.34 49.935C57.8467 48.115 57.1 46.155 57.1 44.055C57.1 41.955 57.5667 40.2633 58.5 38.98C58.08 38.91 57.66 38.875 57.24 38.875C55.5833 38.875 54.1483 39.3767 52.935 40.38C50.6483 42.2467 49.505 44.8367 49.505 48.15C49.505 50.04 49.925 51.615 50.765 52.875C51.605 54.135 52.7717 54.765 54.265 54.765C55.4083 54.765 56.4467 54.3217 57.38 53.435C58.3367 52.525 58.99 51.3583 59.34 49.935ZM88.3345 53.505L89.1745 52.945C87.6578 50.0283 86.8995 46.8317 86.8995 43.355C86.8995 40.6483 87.5645 38.35 88.8945 36.46C90.2478 34.57 92.1495 33.625 94.5995 33.625C95.8828 33.625 96.9678 33.8467 97.8545 34.29C97.6212 35.5967 97.2012 37.8717 96.5945 41.115C95.2878 48.0917 94.6345 52.0933 94.6345 53.12C94.6345 55.3367 95.0078 56.9933 95.7545 58.09C94.7278 58.7667 93.7828 59.2333 92.9195 59.49C92.0562 59.7467 90.9362 59.875 89.5595 59.875C88.2062 59.875 86.9695 59.5833 85.8495 59C84.7528 58.4167 83.8428 57.6467 83.1195 56.69C82.4195 55.71 81.8245 54.5083 81.3345 53.085C80.4712 50.5883 79.9462 47.415 79.7595 43.565H79.1995C78.1262 48.4183 77.5895 51.8133 77.5895 53.75C77.5895 55.6867 77.9395 57.215 78.6395 58.335C77.2395 59.385 75.7812 59.91 74.2645 59.91C72.7478 59.91 71.6628 59.4783 71.0095 58.615C70.3562 57.7283 70.0295 56.4217 70.0295 54.695C70.0295 52.945 70.7645 48.01 72.2345 39.89L70.3795 36.145C72.9928 34.465 75.3262 33.625 77.3795 33.625C79.4328 33.625 80.9845 33.9867 82.0345 34.71C83.0845 35.41 83.8195 36.4483 84.2395 37.825C84.6595 39.2017 84.9628 40.66 85.1495 42.2C85.3595 43.7167 85.7095 45.5483 86.1995 47.695C86.7128 49.8417 87.4245 51.7783 88.3345 53.505ZM104.684 59.91C103.307 59.91 102.292 59.4783 101.639 58.615C100.985 57.7283 100.659 56.4217 100.659 54.695C100.659 52.945 101.394 48.01 102.864 39.89L101.009 36.145C103.645 34.4417 106.049 33.59 108.219 33.59C109.595 33.59 110.447 34.2433 110.774 35.55C113.41 35.48 116.7 34.885 120.644 33.765C120.83 34.535 120.924 35.2933 120.924 36.04C120.924 37.93 120.294 39.3533 119.034 40.31C117.797 41.2667 116.199 41.745 114.239 41.745C112.909 41.745 111.602 41.465 110.319 40.905C110.132 41.955 109.805 43.67 109.339 46.05C110.202 46.2133 110.937 46.295 111.544 46.295C112.5 46.1083 113.55 45.84 114.694 45.49C114.81 45.8867 114.869 46.54 114.869 47.45C114.869 48.3367 114.507 49.0483 113.784 49.585C113.06 50.1217 112.244 50.39 111.334 50.39C110.447 50.39 109.537 50.285 108.604 50.075C108.347 51.545 108.219 52.9333 108.219 54.24H113.889C115.662 53.9833 117.447 53.5283 119.244 52.875C119.384 53.295 119.454 53.8667 119.454 54.59C119.454 55.9667 119.045 57.1917 118.229 58.265C117.435 59.3383 116.327 59.875 114.904 59.875C114.157 59.875 113.06 59.7233 111.614 59.42C110.19 59.14 109.129 58.965 108.429 58.895C107.309 59.5717 106.06 59.91 104.684 59.91ZM137.022 59.91C135.528 59.91 134.455 59.4783 133.802 58.615C133.148 57.7283 132.822 56.4217 132.822 54.695C132.822 52.945 133.557 48.01 135.027 39.89L133.172 36.145C135.808 34.4417 138.212 33.59 140.382 33.59C141.828 33.59 142.692 34.29 142.972 35.69C145.375 34.3133 147.732 33.625 150.042 33.625C151.558 33.625 152.888 33.975 154.032 34.675C155.385 35.4917 156.062 36.9033 156.062 38.91C156.062 42.2233 154.23 44.6267 150.567 46.12C154.3 46.7733 156.167 48.8617 156.167 52.385C156.167 54.6717 155.222 56.4917 153.332 57.845C151.442 59.1983 149.318 59.875 146.962 59.875C144.628 59.875 142.75 59.385 141.327 58.405C139.95 59.4083 138.515 59.91 137.022 59.91ZM148.082 51.615C148.082 50.5183 147.755 49.7133 147.102 49.2C146.472 48.6867 145.62 48.43 144.547 48.43C143.473 48.43 142.272 48.6517 140.942 49.095C140.568 51.0783 140.382 52.77 140.382 54.17C141.525 54.7067 142.715 54.975 143.952 54.975C145.188 54.975 146.18 54.6833 146.927 54.1C147.697 53.5167 148.082 52.6883 148.082 51.615ZM145.807 38.245C144.897 38.245 143.917 38.42 142.867 38.77C142.727 39.68 142.295 42.0133 141.572 45.77C143.508 45.63 145.153 45.1633 146.507 44.37C147.86 43.5533 148.537 42.3867 148.537 40.87C148.537 39.12 147.627 38.245 145.807 38.245ZM170.441 32.47C170.441 33.3567 169.974 34.1267 169.041 34.78C168.108 35.41 167.046 35.725 165.856 35.725C164.666 35.725 163.721 35.4917 163.021 35.025C162.344 34.5583 162.006 33.9283 162.006 33.135C162.006 32.0617 162.508 31.2217 163.511 30.615C164.514 30.0083 165.576 29.705 166.696 29.705C167.816 29.705 168.714 29.9383 169.391 30.405C170.091 30.8717 170.441 31.56 170.441 32.47ZM163.616 59.875C162.169 59.875 161.119 59.5133 160.466 58.79C159.813 58.0667 159.486 56.97 159.486 55.5C159.486 54.0067 160.233 50.0283 161.726 43.565L159.766 40.625C162.683 38.875 164.981 38 166.661 38C167.618 38 168.294 38.21 168.691 38.63C169.088 39.0267 169.286 39.68 169.286 40.59C169.286 40.94 168.854 42.9933 167.991 46.75C167.128 50.5067 166.696 53.19 166.696 54.8C166.696 56.41 167.058 57.53 167.781 58.16C166.474 59.3033 165.086 59.875 163.616 59.875ZM173.125 46.365C172.962 45.7117 172.88 45.105 172.88 44.545C172.88 43.4017 173.219 42.5383 173.895 41.955C174.572 41.3717 175.447 41.08 176.52 41.08C176.52 39.8667 176.205 38.5483 175.575 37.125C176.719 36.285 177.757 35.655 178.69 35.235C179.647 34.7917 180.65 34.57 181.7 34.57C182.75 34.57 183.474 34.7683 183.87 35.165C184.29 35.5383 184.5 36.1217 184.5 36.915C184.5 37.7083 184.337 38.945 184.01 40.625C184.944 40.485 185.889 40.2867 186.845 40.03C187.009 40.52 187.09 41.15 187.09 41.92C187.09 42.69 186.787 43.4133 186.18 44.09C185.597 44.7433 184.734 45.07 183.59 45.07H183.065C182.225 48.8733 181.805 51.8017 181.805 53.855C181.805 55.9083 182.167 57.3433 182.89 58.16C181.584 59.3033 180.195 59.875 178.725 59.875C177.255 59.875 176.194 59.4433 175.54 58.58C174.91 57.6933 174.595 56.3283 174.595 54.485C174.595 53.365 175.004 50.425 175.82 45.665C174.887 45.8283 173.989 46.0617 173.125 46.365ZM215.454 54.485C215.454 53.505 215.617 51.895 215.944 49.655H208.034C207.731 51.405 207.579 52.6067 207.579 53.26C207.579 55.5233 207.929 57.215 208.629 58.335C207.229 59.385 205.771 59.91 204.254 59.91C202.737 59.91 201.652 59.4783 200.999 58.615C200.346 57.7283 200.019 56.4217 200.019 54.695C200.019 52.945 200.754 48.01 202.224 39.89L200.369 36.145C203.006 34.4417 205.409 33.59 207.579 33.59C209.376 33.59 210.274 34.6867 210.274 36.88C210.274 37.5333 209.784 40.4033 208.804 45.49H216.644C216.737 44.9067 217.076 43.04 217.659 39.89L215.804 36.145C218.441 34.4417 220.844 33.59 223.014 33.59C224.811 33.59 225.709 34.6867 225.709 36.88C225.709 37.6033 225.254 40.2983 224.344 44.965C223.457 49.6083 223.014 52.3733 223.014 53.26C223.014 55.5233 223.364 57.215 224.064 58.335C222.664 59.385 221.206 59.91 219.689 59.91C218.172 59.91 217.087 59.4783 216.434 58.615C215.781 57.7283 215.454 56.3517 215.454 54.485ZM238.352 59.875C235.155 59.875 232.682 59.0467 230.932 57.39C229.205 55.7333 228.342 53.4933 228.342 50.67C228.342 46.9133 229.625 43.8683 232.192 41.535C234.782 39.1783 238.025 38 241.922 38C244.092 38 245.737 38.49 246.857 39.47C247.977 40.4267 248.537 41.6983 248.537 43.285C248.537 45.455 247.475 47.2633 245.352 48.71C243.252 50.1333 239.997 50.8567 235.587 50.88C235.657 52.3733 235.995 53.5517 236.602 54.415C237.208 55.255 237.967 55.675 238.877 55.675C239.787 55.675 240.568 55.3717 241.222 54.765C241.898 54.1583 242.237 53.1667 242.237 51.79C245.643 51.79 247.347 52.595 247.347 54.205C247.347 55.5817 246.507 56.8767 244.827 58.09C243.147 59.28 240.988 59.875 238.352 59.875ZM241.327 42.095C240.137 42.095 239.04 42.69 238.037 43.88C237.057 45.07 236.345 46.47 235.902 48.08C238.235 47.8933 239.985 47.3683 241.152 46.505C242.342 45.6183 242.937 44.685 242.937 43.705C242.937 43.2383 242.785 42.8533 242.482 42.55C242.202 42.2467 241.817 42.095 241.327 42.095ZM264.715 54.695L264.365 54.52C263.735 56.2 262.825 57.5183 261.635 58.475C260.468 59.4083 259.161 59.875 257.715 59.875C255.731 59.875 254.145 59.1283 252.955 57.635C251.765 56.1417 251.17 54.1467 251.17 51.65C251.17 47.7767 252.465 44.5333 255.055 41.92C257.668 39.3067 260.911 38 264.785 38C265.788 38 266.71 38.0933 267.55 38.28C267.69 38.9333 267.771 39.505 267.795 39.995C268.961 39.2483 270.163 38.875 271.4 38.875C273.103 38.875 273.955 39.7967 273.955 41.64C273.955 42.2933 273.581 44.265 272.835 47.555C272.111 50.845 271.75 53.2833 271.75 54.87C271.75 56.4567 272.111 57.5533 272.835 58.16C271.528 59.3033 270.163 59.875 268.74 59.875C267.34 59.875 266.313 59.455 265.66 58.615C265.03 57.775 264.715 56.4683 264.715 54.695ZM257.75 49.935C257.75 51.0783 257.983 51.965 258.45 52.595C258.94 53.2017 259.628 53.505 260.515 53.505C261.401 53.505 262.276 53.1783 263.14 52.525C264.003 51.8717 264.726 50.9733 265.31 49.83C265.52 47.4733 265.975 44.685 266.675 41.465C264.318 41.465 262.241 42.3167 260.445 44.02C258.648 45.7233 257.75 47.695 257.75 49.935ZM280.756 37.23L278.796 34.43C281.713 32.7267 284.011 31.875 285.691 31.875C286.648 31.875 287.324 32.0733 287.721 32.47C288.118 32.8433 288.316 33.5667 288.316 34.64C288.316 35.69 287.791 38.6767 286.741 43.6C285.714 48.5233 285.201 51.9767 285.201 53.96C285.201 55.9433 285.563 57.3433 286.286 58.16C284.653 59.3033 283.171 59.875 281.841 59.875C280.511 59.875 279.531 59.4433 278.901 58.58C278.294 57.6933 277.991 56.48 277.991 54.94C277.991 53.4 278.423 50.25 279.286 45.49C280.149 40.73 280.639 37.9767 280.756 37.23ZM291.353 46.365C291.189 45.7117 291.108 45.105 291.108 44.545C291.108 43.4017 291.446 42.5383 292.123 41.955C292.799 41.3717 293.674 41.08 294.748 41.08C294.748 39.8667 294.433 38.5483 293.803 37.125C294.946 36.285 295.984 35.655 296.918 35.235C297.874 34.7917 298.878 34.57 299.928 34.57C300.978 34.57 301.701 34.7683 302.098 35.165C302.518 35.5383 302.728 36.1217 302.728 36.915C302.728 37.7083 302.564 38.945 302.238 40.625C303.171 40.485 304.116 40.2867 305.073 40.03C305.236 40.52 305.318 41.15 305.318 41.92C305.318 42.69 305.014 43.4133 304.408 44.09C303.824 44.7433 302.961 45.07 301.818 45.07H301.293C300.453 48.8733 300.033 51.8017 300.033 53.855C300.033 55.9083 300.394 57.3433 301.118 58.16C299.811 59.3033 298.423 59.875 296.953 59.875C295.483 59.875 294.421 59.4433 293.768 58.58C293.138 57.6933 292.823 56.3283 292.823 54.485C292.823 53.365 293.231 50.425 294.048 45.665C293.114 45.8283 292.216 46.0617 291.353 46.365ZM326.898 38C329.722 38 331.133 39.4117 331.133 42.235C331.133 43.4483 330.783 45.5017 330.083 48.395C329.407 51.2883 329.068 53.47 329.068 54.94C329.068 56.41 329.313 57.4833 329.803 58.16C328.567 59.3033 327.26 59.875 325.883 59.875C323.2 59.875 321.858 58.4283 321.858 55.535C321.858 54.4617 322.208 52.6417 322.908 50.075C323.608 47.5083 323.958 45.84 323.958 45.07C323.958 44.02 323.562 43.495 322.768 43.495C322.115 43.495 321.368 43.7867 320.528 44.37C319.688 44.93 318.872 45.7 318.078 46.68C317.308 47.6367 316.655 48.8617 316.118 50.355C315.582 51.825 315.313 53.33 315.313 54.87C315.313 56.3867 315.558 57.4833 316.048 58.16C314.812 59.3033 313.505 59.875 312.128 59.875C309.445 59.875 308.103 58.4283 308.103 55.535C308.103 53.8083 308.57 50.3083 309.503 45.035C310.297 40.3917 310.752 37.79 310.868 37.23L308.908 34.43C311.825 32.7267 314.123 31.875 315.803 31.875C316.76 31.875 317.437 32.0733 317.833 32.47C318.23 32.8433 318.428 33.4733 318.428 34.36C318.428 36.04 318.265 37.8717 317.938 39.855C317.612 41.8383 317.308 43.2967 317.028 44.23L317.378 44.405C319.875 40.135 323.048 38 326.898 38Z" fill="white"/>
</svg>
